<svg width="1000" height="1000" viewBox="0 0 1000 1000" fill="none" xmlns="http://www.w3.org/2000/svg">
<rect width="1000" height="1000" fill="#273340"/>
<g filter="url(#filter0_d_823_167)">
<rect x="79" y="79" width="260" height="260" fill="#F2F1FA"/>
</g>
<g filter="url(#filter1_d_823_167)">
<rect x="79" y="370" width="551" height="260" fill="#F2F1FA"/>
</g>
<path d="M125.35 500C127.383 500.433 129.017 501.45 130.25 503.05C131.483 504.617 132.1 506.417 132.1 508.45C132.1 511.383 131.067 513.717 129 515.45C126.967 517.15 124.117 518 120.45 518H104.1V482.9H119.9C123.467 482.9 126.25 483.717 128.25 485.35C130.283 486.983 131.3 489.2 131.3 492C131.3 494.067 130.75 495.783 129.65 497.15C128.583 498.517 127.15 499.467 125.35 500ZM112.65 497.1H118.25C119.65 497.1 120.717 496.8 121.45 496.2C122.217 495.567 122.6 494.65 122.6 493.45C122.6 492.25 122.217 491.333 121.45 490.7C120.717 490.067 119.65 489.75 118.25 489.75H112.65V497.1ZM118.95 511.1C120.383 511.1 121.483 510.783 122.25 510.15C123.05 509.483 123.45 508.533 123.45 507.3C123.45 506.067 123.033 505.1 122.2 504.4C121.4 503.7 120.283 503.35 118.85 503.35H112.65V511.1H118.95ZM145.609 481V518H137.059V481H145.609ZM164.505 518.4C161.772 518.4 159.305 517.817 157.105 516.65C154.938 515.483 153.222 513.817 151.955 511.65C150.722 509.483 150.105 506.95 150.105 504.05C150.105 501.183 150.738 498.667 152.005 496.5C153.272 494.3 155.005 492.617 157.205 491.45C159.405 490.283 161.872 489.7 164.605 489.7C167.338 489.7 169.805 490.283 172.005 491.45C174.205 492.617 175.938 494.3 177.205 496.5C178.472 498.667 179.105 501.183 179.105 504.05C179.105 506.917 178.455 509.45 177.155 511.65C175.888 513.817 174.138 515.483 171.905 516.65C169.705 517.817 167.238 518.4 164.505 518.4ZM164.505 511C166.138 511 167.522 510.4 168.655 509.2C169.822 508 170.405 506.283 170.405 504.05C170.405 501.817 169.838 500.1 168.705 498.9C167.605 497.7 166.238 497.1 164.605 497.1C162.938 497.1 161.555 497.7 160.455 498.9C159.355 500.067 158.805 501.783 158.805 504.05C158.805 506.283 159.338 508 160.405 509.2C161.505 510.4 162.872 511 164.505 511ZM181.941 504.05C181.941 501.15 182.524 498.617 183.691 496.45C184.891 494.283 186.541 492.617 188.641 491.45C190.774 490.283 193.208 489.7 195.941 489.7C199.441 489.7 202.358 490.617 204.691 492.45C207.058 494.283 208.608 496.867 209.341 500.2H200.241C199.474 498.067 197.991 497 195.791 497C194.224 497 192.974 497.617 192.041 498.85C191.108 500.05 190.641 501.783 190.641 504.05C190.641 506.317 191.108 508.067 192.041 509.3C192.974 510.5 194.224 511.1 195.791 511.1C197.991 511.1 199.474 510.033 200.241 507.9H209.341C208.608 511.167 207.058 513.733 204.691 515.6C202.324 517.467 199.408 518.4 195.941 518.4C193.208 518.4 190.774 517.817 188.641 516.65C186.541 515.483 184.891 513.817 183.691 511.65C182.524 509.483 181.941 506.95 181.941 504.05ZM230.964 518L222.464 506.3V518H213.914V481H222.464V501.45L230.914 490.1H241.464L229.864 504.1L241.564 518H230.964ZM256.173 518.4C253.739 518.4 251.573 517.983 249.673 517.15C247.773 516.317 246.273 515.183 245.173 513.75C244.073 512.283 243.456 510.65 243.323 508.85H251.773C251.873 509.817 252.323 510.6 253.123 511.2C253.923 511.8 254.906 512.1 256.073 512.1C257.139 512.1 257.956 511.9 258.523 511.5C259.123 511.067 259.423 510.517 259.423 509.85C259.423 509.05 259.006 508.467 258.173 508.1C257.339 507.7 255.989 507.267 254.123 506.8C252.123 506.333 250.456 505.85 249.123 505.35C247.789 504.817 246.639 504 245.673 502.9C244.706 501.767 244.223 500.25 244.223 498.35C244.223 496.75 244.656 495.3 245.523 494C246.423 492.667 247.723 491.617 249.423 490.85C251.156 490.083 253.206 489.7 255.573 489.7C259.073 489.7 261.823 490.567 263.823 492.3C265.856 494.033 267.023 496.333 267.323 499.2H259.423C259.289 498.233 258.856 497.467 258.123 496.9C257.423 496.333 256.489 496.05 255.323 496.05C254.323 496.05 253.556 496.25 253.023 496.65C252.489 497.017 252.223 497.533 252.223 498.2C252.223 499 252.639 499.6 253.473 500C254.339 500.4 255.673 500.8 257.473 501.2C259.539 501.733 261.223 502.267 262.523 502.8C263.823 503.3 264.956 504.133 265.923 505.3C266.923 506.433 267.439 507.967 267.473 509.9C267.473 511.533 267.006 513 266.073 514.3C265.173 515.567 263.856 516.567 262.123 517.3C260.423 518.033 258.439 518.4 256.173 518.4ZM291.849 489.75V496.85H303.299V503.45H291.849V511.15H304.799V518H283.299V482.9H304.799V489.75H291.849ZM326.85 518L321.5 510.25L317 518H307.75L316.95 503.75L307.5 490.1H317.1L322.45 497.8L326.95 490.1H336.2L326.85 504.15L336.45 518H326.85ZM355.295 510.75V518H350.945C347.845 518 345.428 517.25 343.695 515.75C341.961 514.217 341.095 511.733 341.095 508.3V497.2H337.695V490.1H341.095V483.3H349.645V490.1H355.245V497.2H349.645V508.4C349.645 509.233 349.845 509.833 350.245 510.2C350.645 510.567 351.311 510.75 352.245 510.75H355.295ZM386.357 503.6C386.357 504.4 386.307 505.233 386.207 506.1H366.857C366.99 507.833 367.54 509.167 368.507 510.1C369.507 511 370.724 511.45 372.157 511.45C374.29 511.45 375.774 510.55 376.607 508.75H385.707C385.24 510.583 384.39 512.233 383.157 513.7C381.957 515.167 380.44 516.317 378.607 517.15C376.774 517.983 374.724 518.4 372.457 518.4C369.724 518.4 367.29 517.817 365.157 516.65C363.024 515.483 361.357 513.817 360.157 511.65C358.957 509.483 358.357 506.95 358.357 504.05C358.357 501.15 358.94 498.617 360.107 496.45C361.307 494.283 362.974 492.617 365.107 491.45C367.24 490.283 369.69 489.7 372.457 489.7C375.157 489.7 377.557 490.267 379.657 491.4C381.757 492.533 383.39 494.15 384.557 496.25C385.757 498.35 386.357 500.8 386.357 503.6ZM377.607 501.35C377.607 499.883 377.107 498.717 376.107 497.85C375.107 496.983 373.857 496.55 372.357 496.55C370.924 496.55 369.707 496.967 368.707 497.8C367.74 498.633 367.14 499.817 366.907 501.35H377.607ZM407.868 489.8C411.134 489.8 413.734 490.867 415.668 493C417.634 495.1 418.618 498 418.618 501.7V518H410.118V502.85C410.118 500.983 409.634 499.533 408.668 498.5C407.701 497.467 406.401 496.95 404.768 496.95C403.134 496.95 401.834 497.467 400.868 498.5C399.901 499.533 399.418 500.983 399.418 502.85V518H390.868V490.1H399.418V493.8C400.284 492.567 401.451 491.6 402.918 490.9C404.384 490.167 406.034 489.8 407.868 489.8ZM435.909 518.4C433.476 518.4 431.309 517.983 429.409 517.15C427.509 516.317 426.009 515.183 424.909 513.75C423.809 512.283 423.192 510.65 423.059 508.85H431.509C431.609 509.817 432.059 510.6 432.859 511.2C433.659 511.8 434.642 512.1 435.809 512.1C436.876 512.1 437.692 511.9 438.259 511.5C438.859 511.067 439.159 510.517 439.159 509.85C439.159 509.05 438.742 508.467 437.909 508.1C437.076 507.7 435.726 507.267 433.859 506.8C431.859 506.333 430.192 505.85 428.859 505.35C427.526 504.817 426.376 504 425.409 502.9C424.442 501.767 423.959 500.25 423.959 498.35C423.959 496.75 424.392 495.3 425.259 494C426.159 492.667 427.459 491.617 429.159 490.85C430.892 490.083 432.942 489.7 435.309 489.7C438.809 489.7 441.559 490.567 443.559 492.3C445.592 494.033 446.759 496.333 447.059 499.2H439.159C439.026 498.233 438.592 497.467 437.859 496.9C437.159 496.333 436.226 496.05 435.059 496.05C434.059 496.05 433.292 496.25 432.759 496.65C432.226 497.017 431.959 497.533 431.959 498.2C431.959 499 432.376 499.6 433.209 500C434.076 500.4 435.409 500.8 437.209 501.2C439.276 501.733 440.959 502.267 442.259 502.8C443.559 503.3 444.692 504.133 445.659 505.3C446.659 506.433 447.176 507.967 447.209 509.9C447.209 511.533 446.742 513 445.809 514.3C444.909 515.567 443.592 516.567 441.859 517.3C440.159 518.033 438.176 518.4 435.909 518.4ZM456.74 487.2C455.24 487.2 454.007 486.767 453.04 485.9C452.107 485 451.64 483.9 451.64 482.6C451.64 481.267 452.107 480.167 453.04 479.3C454.007 478.4 455.24 477.95 456.74 477.95C458.207 477.95 459.407 478.4 460.34 479.3C461.307 480.167 461.79 481.267 461.79 482.6C461.79 483.9 461.307 485 460.34 485.9C459.407 486.767 458.207 487.2 456.74 487.2ZM460.99 490.1V518H452.44V490.1H460.99ZM479.886 518.4C477.153 518.4 474.686 517.817 472.486 516.65C470.319 515.483 468.603 513.817 467.336 511.65C466.103 509.483 465.486 506.95 465.486 504.05C465.486 501.183 466.119 498.667 467.386 496.5C468.653 494.3 470.386 492.617 472.586 491.45C474.786 490.283 477.253 489.7 479.986 489.7C482.719 489.7 485.186 490.283 487.386 491.45C489.586 492.617 491.319 494.3 492.586 496.5C493.853 498.667 494.486 501.183 494.486 504.05C494.486 506.917 493.836 509.45 492.536 511.65C491.269 513.817 489.519 515.483 487.286 516.65C485.086 517.817 482.619 518.4 479.886 518.4ZM479.886 511C481.519 511 482.903 510.4 484.036 509.2C485.203 508 485.786 506.283 485.786 504.05C485.786 501.817 485.219 500.1 484.086 498.9C482.986 497.7 481.619 497.1 479.986 497.1C478.319 497.1 476.936 497.7 475.836 498.9C474.736 500.067 474.186 501.783 474.186 504.05C474.186 506.283 474.719 508 475.786 509.2C476.886 510.4 478.253 511 479.886 511ZM516.022 489.8C519.289 489.8 521.889 490.867 523.822 493C525.789 495.1 526.772 498 526.772 501.7V518H518.272V502.85C518.272 500.983 517.789 499.533 516.822 498.5C515.855 497.467 514.555 496.95 512.922 496.95C511.289 496.95 509.989 497.467 509.022 498.5C508.055 499.533 507.572 500.983 507.572 502.85V518H499.022V490.1H507.572V493.8C508.439 492.567 509.605 491.6 511.072 490.9C512.539 490.167 514.189 489.8 516.022 489.8ZM544.063 518.4C541.63 518.4 539.463 517.983 537.563 517.15C535.663 516.317 534.163 515.183 533.063 513.75C531.963 512.283 531.347 510.65 531.213 508.85H539.663C539.763 509.817 540.213 510.6 541.013 511.2C541.813 511.8 542.797 512.1 543.963 512.1C545.03 512.1 545.847 511.9 546.413 511.5C547.013 511.067 547.313 510.517 547.313 509.85C547.313 509.05 546.897 508.467 546.063 508.1C545.23 507.7 543.88 507.267 542.013 506.8C540.013 506.333 538.347 505.85 537.013 505.35C535.68 504.817 534.53 504 533.563 502.9C532.597 501.767 532.113 500.25 532.113 498.35C532.113 496.75 532.547 495.3 533.413 494C534.313 492.667 535.613 491.617 537.313 490.85C539.047 490.083 541.097 489.7 543.463 489.7C546.963 489.7 549.713 490.567 551.713 492.3C553.747 494.033 554.913 496.333 555.213 499.2H547.313C547.18 498.233 546.747 497.467 546.013 496.9C545.313 496.333 544.38 496.05 543.213 496.05C542.213 496.05 541.447 496.25 540.913 496.65C540.38 497.017 540.113 497.533 540.113 498.2C540.113 499 540.53 499.6 541.363 500C542.23 500.4 543.563 500.8 545.363 501.2C547.43 501.733 549.113 502.267 550.413 502.8C551.713 503.3 552.847 504.133 553.813 505.3C554.813 506.433 555.33 507.967 555.363 509.9C555.363 511.533 554.897 513 553.963 514.3C553.063 515.567 551.747 516.567 550.013 517.3C548.313 518.033 546.33 518.4 544.063 518.4Z" fill="#273340"/>
<g filter="url(#filter2_d_823_167)">
<rect x="79" y="661" width="842" height="260" fill="#F2F1FA"/>
</g>
<g filter="url(#filter3_d_823_167)">
<rect x="370" y="79" width="260" height="260" fill="#F2F1FA"/>
</g>
<g filter="url(#filter4_d_823_167)">
<rect x="661" y="79" width="260" height="260" fill="#F2F1FA"/>
</g>
<rect x="105" y="129" width="150" height="21" fill="#D9D9D9"/>
<rect x="106" y="704" width="394" height="21" fill="#D9D9D9"/>
<rect x="419" y="117" width="162" height="175" fill="#D9D9D9"/>
<rect x="105" y="167" width="211" height="21" fill="#D9D9D9"/>
<rect x="106" y="742" width="555" height="21" fill="#D9D9D9"/>
<rect x="104" y="205" width="211" height="21" fill="#D9D9D9"/>
<rect x="103" y="780" width="555" height="21" fill="#D9D9D9"/>
<rect x="103" y="818" width="455" height="21" fill="#D9D9D9"/>
<rect x="103" y="856" width="340" height="21" fill="#D9D9D9"/>
<path d="M721.96 459.04H711.48L709.8 464H702.64L712.8 435.92H720.72L730.88 464H723.64L721.96 459.04ZM720.2 453.76L716.72 443.48L713.28 453.76H720.2ZM747.572 441.44C750.186 441.44 752.266 442.293 753.812 444C755.386 445.68 756.172 448 756.172 450.96V464H749.372V451.88C749.372 450.387 748.986 449.227 748.212 448.4C747.439 447.573 746.399 447.16 745.092 447.16C743.786 447.16 742.746 447.573 741.972 448.4C741.199 449.227 740.812 450.387 740.812 451.88V464H733.972V441.68H740.812V444.64C741.506 443.653 742.439 442.88 743.612 442.32C744.786 441.733 746.106 441.44 747.572 441.44ZM764.365 439.36C763.165 439.36 762.179 439.013 761.405 438.32C760.659 437.6 760.285 436.72 760.285 435.68C760.285 434.613 760.659 433.733 761.405 433.04C762.179 432.32 763.165 431.96 764.365 431.96C765.539 431.96 766.499 432.32 767.245 433.04C768.019 433.733 768.405 434.613 768.405 435.68C768.405 436.72 768.019 437.6 767.245 438.32C766.499 439.013 765.539 439.36 764.365 439.36ZM767.765 441.68V464H760.925V441.68H767.765ZM801.202 441.44C803.976 441.44 806.176 442.28 807.802 443.96C809.456 445.64 810.282 447.973 810.282 450.96V464H803.482V451.88C803.482 450.44 803.096 449.333 802.322 448.56C801.576 447.76 800.536 447.36 799.202 447.36C797.869 447.36 796.816 447.76 796.042 448.56C795.296 449.333 794.922 450.44 794.922 451.88V464H788.122V451.88C788.122 450.44 787.736 449.333 786.962 448.56C786.216 447.76 785.176 447.36 783.842 447.36C782.509 447.36 781.456 447.76 780.682 448.56C779.936 449.333 779.562 450.44 779.562 451.88V464H772.722V441.68H779.562V444.48C780.256 443.547 781.162 442.813 782.282 442.28C783.402 441.72 784.669 441.44 786.082 441.44C787.762 441.44 789.256 441.8 790.562 442.52C791.896 443.24 792.936 444.267 793.682 445.6C794.456 444.373 795.509 443.373 796.842 442.6C798.176 441.827 799.629 441.44 801.202 441.44ZM813.706 452.8C813.706 450.507 814.133 448.493 814.986 446.76C815.866 445.027 817.053 443.693 818.546 442.76C820.039 441.827 821.706 441.36 823.546 441.36C825.119 441.36 826.493 441.68 827.666 442.32C828.866 442.96 829.786 443.8 830.426 444.84V441.68H837.266V464H830.426V460.84C829.759 461.88 828.826 462.72 827.626 463.36C826.453 464 825.079 464.32 823.506 464.32C821.693 464.32 820.039 463.853 818.546 462.92C817.053 461.96 815.866 460.613 814.986 458.88C814.133 457.12 813.706 455.093 813.706 452.8ZM830.426 452.84C830.426 451.133 829.946 449.787 828.986 448.8C828.053 447.813 826.906 447.32 825.546 447.32C824.186 447.32 823.026 447.813 822.066 448.8C821.133 449.76 820.666 451.093 820.666 452.8C820.666 454.507 821.133 455.867 822.066 456.88C823.026 457.867 824.186 458.36 825.546 458.36C826.906 458.36 828.053 457.867 828.986 456.88C829.946 455.893 830.426 454.547 830.426 452.84ZM854.654 458.2V464H851.174C848.694 464 846.761 463.4 845.374 462.2C843.988 460.973 843.294 458.987 843.294 456.24V447.36H840.574V441.68H843.294V436.24H850.134V441.68H854.614V447.36H850.134V456.32C850.134 456.987 850.294 457.467 850.614 457.76C850.934 458.053 851.468 458.2 852.214 458.2H854.654ZM879.504 452.48C879.504 453.12 879.464 453.787 879.384 454.48H863.904C864.011 455.867 864.451 456.933 865.224 457.68C866.024 458.4 866.998 458.76 868.144 458.76C869.851 458.76 871.038 458.04 871.704 456.6H878.984C878.611 458.067 877.931 459.387 876.944 460.56C875.984 461.733 874.771 462.653 873.304 463.32C871.838 463.987 870.198 464.32 868.384 464.32C866.198 464.32 864.251 463.853 862.544 462.92C860.838 461.987 859.504 460.653 858.544 458.92C857.584 457.187 857.104 455.16 857.104 452.84C857.104 450.52 857.571 448.493 858.504 446.76C859.464 445.027 860.798 443.693 862.504 442.76C864.211 441.827 866.171 441.36 868.384 441.36C870.544 441.36 872.464 441.813 874.144 442.72C875.824 443.627 877.131 444.92 878.064 446.6C879.024 448.28 879.504 450.24 879.504 452.48ZM872.504 450.68C872.504 449.507 872.104 448.573 871.304 447.88C870.504 447.187 869.504 446.84 868.304 446.84C867.158 446.84 866.184 447.173 865.384 447.84C864.611 448.507 864.131 449.453 863.944 450.68H872.504ZM728.8 485.92V514H721.96V502.44H711.32V514H704.48V485.92H711.32V496.92H721.96V485.92H728.8ZM737.178 489.36C735.978 489.36 734.991 489.013 734.218 488.32C733.471 487.6 733.098 486.72 733.098 485.68C733.098 484.613 733.471 483.733 734.218 483.04C734.991 482.32 735.978 481.96 737.178 481.96C738.351 481.96 739.311 482.32 740.058 483.04C740.831 483.733 741.218 484.613 741.218 485.68C741.218 486.72 740.831 487.6 740.058 488.32C739.311 489.013 738.351 489.36 737.178 489.36ZM740.578 491.68V514H733.738V491.68H740.578ZM744.175 502.8C744.175 500.507 744.601 498.493 745.455 496.76C746.335 495.027 747.521 493.693 749.015 492.76C750.508 491.827 752.175 491.36 754.015 491.36C755.481 491.36 756.815 491.667 758.015 492.28C759.241 492.893 760.201 493.72 760.895 494.76V484.4H767.735V514H760.895V510.8C760.255 511.867 759.335 512.72 758.135 513.36C756.961 514 755.588 514.32 754.015 514.32C752.175 514.32 750.508 513.853 749.015 512.92C747.521 511.96 746.335 510.613 745.455 508.88C744.601 507.12 744.175 505.093 744.175 502.8ZM760.895 502.84C760.895 501.133 760.415 499.787 759.455 498.8C758.521 497.813 757.375 497.32 756.015 497.32C754.655 497.32 753.495 497.813 752.535 498.8C751.601 499.76 751.135 501.093 751.135 502.8C751.135 504.507 751.601 505.867 752.535 506.88C753.495 507.867 754.655 508.36 756.015 508.36C757.375 508.36 758.521 507.867 759.455 506.88C760.415 505.893 760.895 504.547 760.895 502.84ZM793.723 502.48C793.723 503.12 793.683 503.787 793.603 504.48H778.123C778.23 505.867 778.67 506.933 779.443 507.68C780.243 508.4 781.216 508.76 782.363 508.76C784.07 508.76 785.256 508.04 785.923 506.6H793.203C792.83 508.067 792.15 509.387 791.163 510.56C790.203 511.733 788.99 512.653 787.523 513.32C786.056 513.987 784.416 514.32 782.603 514.32C780.416 514.32 778.47 513.853 776.763 512.92C775.056 511.987 773.723 510.653 772.763 508.92C771.803 507.187 771.323 505.16 771.323 502.84C771.323 500.52 771.79 498.493 772.723 496.76C773.683 495.027 775.016 493.693 776.723 492.76C778.43 491.827 780.39 491.36 782.603 491.36C784.763 491.36 786.683 491.813 788.363 492.72C790.043 493.627 791.35 494.92 792.283 496.6C793.243 498.28 793.723 500.24 793.723 502.48ZM786.723 500.68C786.723 499.507 786.323 498.573 785.523 497.88C784.723 497.187 783.723 496.84 782.523 496.84C781.376 496.84 780.403 497.173 779.603 497.84C778.83 498.507 778.35 499.453 778.163 500.68H786.723ZM711.32 541.4V547.08H720.48V552.36H711.32V558.52H721.68V564H704.48V535.92H721.68V541.4H711.32ZM739.321 564L735.041 557.8L731.441 564H724.041L731.401 552.6L723.841 541.68H731.521L735.801 547.84L739.401 541.68H746.801L739.321 552.92L747.001 564H739.321ZM762.076 558.2V564H758.596C756.116 564 754.183 563.4 752.796 562.2C751.41 560.973 750.716 558.987 750.716 556.24V547.36H747.996V541.68H750.716V536.24H757.556V541.68H762.036V547.36H757.556V556.32C757.556 556.987 757.716 557.467 758.036 557.76C758.356 558.053 758.89 558.2 759.636 558.2H762.076ZM786.926 552.48C786.926 553.12 786.886 553.787 786.806 554.48H771.326C771.433 555.867 771.873 556.933 772.646 557.68C773.446 558.4 774.42 558.76 775.566 558.76C777.273 558.76 778.46 558.04 779.126 556.6H786.406C786.033 558.067 785.353 559.387 784.366 560.56C783.406 561.733 782.193 562.653 780.726 563.32C779.26 563.987 777.62 564.32 775.806 564.32C773.62 564.32 771.673 563.853 769.966 562.92C768.26 561.987 766.926 560.653 765.966 558.92C765.006 557.187 764.526 555.16 764.526 552.84C764.526 550.52 764.993 548.493 765.926 546.76C766.886 545.027 768.22 543.693 769.926 542.76C771.633 541.827 773.593 541.36 775.806 541.36C777.966 541.36 779.886 541.813 781.566 542.72C783.246 543.627 784.553 544.92 785.486 546.6C786.446 548.28 786.926 550.24 786.926 552.48ZM779.926 550.68C779.926 549.507 779.526 548.573 778.726 547.88C777.926 547.187 776.926 546.84 775.726 546.84C774.58 546.84 773.606 547.173 772.806 547.84C772.033 548.507 771.553 549.453 771.366 550.68H779.926ZM804.135 541.44C806.748 541.44 808.828 542.293 810.375 544C811.948 545.68 812.735 548 812.735 550.96V564H805.935V551.88C805.935 550.387 805.548 549.227 804.775 548.4C804.001 547.573 802.961 547.16 801.655 547.16C800.348 547.16 799.308 547.573 798.535 548.4C797.761 549.227 797.375 550.387 797.375 551.88V564H790.535V541.68H797.375V544.64C798.068 543.653 799.001 542.88 800.175 542.32C801.348 541.733 802.668 541.44 804.135 541.44ZM816.128 552.8C816.128 550.507 816.554 548.493 817.408 546.76C818.288 545.027 819.474 543.693 820.968 542.76C822.461 541.827 824.128 541.36 825.968 541.36C827.434 541.36 828.768 541.667 829.968 542.28C831.194 542.893 832.154 543.72 832.848 544.76V534.4H839.688V564H832.848V560.8C832.208 561.867 831.288 562.72 830.088 563.36C828.914 564 827.541 564.32 825.968 564.32C824.128 564.32 822.461 563.853 820.968 562.92C819.474 561.96 818.288 560.613 817.408 558.88C816.554 557.12 816.128 555.093 816.128 552.8ZM832.848 552.84C832.848 551.133 832.368 549.787 831.408 548.8C830.474 547.813 829.328 547.32 827.968 547.32C826.608 547.32 825.448 547.813 824.488 548.8C823.554 549.76 823.088 551.093 823.088 552.8C823.088 554.507 823.554 555.867 824.488 556.88C825.448 557.867 826.608 558.36 827.968 558.36C829.328 558.36 830.474 557.867 831.408 556.88C832.368 555.893 832.848 554.547 832.848 552.84Z" fill="white"/>
<g clip-path="url(#clip0_823_167)">
<mask id="mask0_823_167" style="mask-type:luminance" maskUnits="userSpaceOnUse" x="807" y="814" width="105" height="105">
<path d="M807 814H912V919H807V814Z" fill="white"/>
</mask>
<g mask="url(#mask0_823_167)">
<path d="M826.243 901.292C824.436 901.292 822.629 901.073 821.444 899.671C821.382 899.36 820.977 898.02 820.915 897.739C820.884 897.677 820.696 897.397 820.696 897.366V896.493C820.541 893.346 820.136 878.7 820.136 875.522C820.136 874.182 820.541 872.687 821.071 871.409C821.289 871.066 821.725 869.976 821.85 869.851V869.882C821.974 869.882 822.66 869.134 823.127 868.979L823.688 868.792C825.65 868.449 827.272 868.075 829.577 868.075C831.695 868.075 837.49 868.107 837.49 868.886C837.49 868.916 837.458 868.948 837.458 868.979C837.458 869.041 837.49 869.072 837.677 869.166C837.677 869.446 837.709 870.786 837.709 871.097C837.646 872.78 837.709 872.998 837.304 874.4C837.023 875.272 835.465 875.304 834.624 875.304C833.72 875.304 833.253 875.272 832.256 875.117C831.851 875.459 831.259 875.21 830.76 875.459C830.76 875.584 830.792 875.927 830.792 876.269C830.792 876.892 830.822 877.422 830.573 877.547V895.122H833.938C833.938 895.122 834.094 894.375 834.126 894.063V893.845C834.126 893.316 833.533 893.751 833.377 893.346V892.567C833.377 892.442 833.347 892.256 833.347 892.069C833.347 891.321 834.157 891.228 834.78 891.228H835.247C835.87 891.228 838.082 891.352 838.612 891.757C838.799 892.817 838.799 893.564 838.799 894.624V895.434L838.612 895.621C838.582 895.652 838.425 896.773 838.425 897.21L838.207 899.671C837.958 900.263 837.428 901.416 836.555 901.416H828.174L827.77 901.26C827.272 901.292 826.741 901.292 826.243 901.292Z" fill="#273340"/>
<path d="M840.791 887.987C840.791 886.024 840.76 872.5 840.76 871.814C840.76 871.035 840.791 871.035 841.29 869.602C841.758 868.262 842.848 868.387 844.156 868.107C844.406 868.107 845.963 867.888 846.774 867.888C848.394 867.888 848.736 868.294 851.323 868.294C852.942 868.294 853.284 868.107 853.971 868.107C854.001 868.107 854.282 868.2 854.313 868.262H857.024C857.056 868.262 857.179 868.387 857.179 868.449V868.605C857.179 869.883 857.149 871.814 856.525 872.157C855.404 872.437 851.384 872.375 851.073 872.687V873.527C851.073 874.182 851.197 888.704 851.229 889.327L854.812 889.515C855.311 889.545 856.027 889.638 856.027 890.293C856.027 890.511 855.996 890.698 855.746 890.885V893.253C855.746 893.253 853.69 893.44 852.756 893.44H851.572C851.447 894.281 851.416 894.686 851.416 895.371C851.416 896.181 851.54 896.96 851.54 897.771H857.024C857.024 897.771 857.491 897.926 857.709 898.02L858.052 898.206V898.861C858.052 899.734 857.866 900.918 856.868 901.073C855.965 901.229 855.466 901.26 854.687 901.26C854.22 901.26 853.971 901.042 853.534 901.042C853.222 901.042 853.098 901.26 852.942 901.26C851.791 901.416 851.041 901.447 849.951 901.447C848.051 901.447 844.469 901.385 842.629 900.918C840.853 900.481 840.948 899.578 840.76 897.864C840.698 897.304 840.604 895.652 840.604 895.465C840.604 893.097 840.791 892.412 840.791 887.987Z" fill="#273340"/>
<path d="M860.076 887.987C860.076 886.024 860.045 872.5 860.045 871.814C860.045 871.035 860.076 871.035 860.575 869.602C861.042 868.262 862.132 868.387 863.441 868.107C863.69 868.107 865.248 867.888 866.059 867.888C867.678 867.888 868.021 868.294 870.607 868.294C872.228 868.294 872.57 868.107 873.256 868.107C873.287 868.107 873.567 868.2 873.598 868.262H876.308C876.34 868.262 876.464 868.387 876.464 868.449V868.605C876.464 869.883 876.433 871.814 875.811 872.157C874.688 872.437 870.67 872.375 870.358 872.687V873.527C870.358 874.182 870.482 888.704 870.513 889.327L874.096 889.515C874.595 889.545 875.312 889.638 875.312 890.293C875.312 890.511 875.28 890.698 875.031 890.885V893.253C875.031 893.253 872.975 893.44 872.04 893.44H870.856C870.732 894.281 870.701 894.686 870.701 895.371C870.701 896.181 870.825 896.96 870.825 897.771H876.308C876.308 897.771 876.776 897.926 876.994 898.02L877.336 898.206V898.861C877.336 899.734 877.15 900.918 876.153 901.073C875.25 901.229 874.751 901.26 873.972 901.26C873.505 901.26 873.256 901.042 872.819 901.042C872.507 901.042 872.383 901.26 872.228 901.26C871.075 901.416 870.326 901.447 869.235 901.447C867.336 901.447 863.753 901.385 861.915 900.918C860.138 900.481 860.232 899.578 860.045 897.864C859.982 897.304 859.889 895.652 859.889 895.465C859.889 893.097 860.076 892.412 860.076 887.987Z" fill="#273340"/>
<path d="M881.697 883.934C881.697 883.903 881.884 883.622 881.884 883.622C881.884 883.56 881.759 883.435 881.697 883.435C881.324 881.41 881.23 879.292 881.23 877.173C881.23 876.238 881.261 875.272 881.261 874.338C881.261 874.275 881.105 874.026 881.105 873.995C880.7 872.344 880.451 870.63 880.451 868.948C880.451 868.48 880.7 868.48 881.261 868.418C883.691 868.169 885.249 868.075 886.495 868.075C886.869 868.075 887.025 868.137 890.203 868.605L890.39 868.761V874.494C891.885 873.496 892.571 871.471 893.443 870.1C893.63 869.789 894.222 869.103 894.253 869.103H898.305C898.522 869.103 898.522 869.353 898.522 869.446C898.522 870.1 897.618 870.537 897.307 871.129C896.715 872.157 896.496 872.874 895.873 873.995C895.873 874.026 895.499 874.432 895.468 874.494C894.845 875.429 894.533 876.394 894.066 877.36L893.849 877.702C893.256 878.388 893.163 878.793 893.038 879.572C893.007 879.634 892.82 880.226 892.82 880.382C892.82 880.476 893.163 880.818 893.225 880.912L893.443 881.254C893.505 881.379 893.817 881.722 893.849 881.753C894.69 882.439 895.406 883.061 895.873 883.778L897.088 885.149C897.555 885.679 897.525 885.585 897.68 885.99C898.615 887.174 900.11 888.046 900.11 889.075C900.11 889.355 899.862 889.355 899.643 889.355L894.44 889.012C893.817 888.607 893.412 887.642 893.038 887.143C892.322 887.143 892.103 885.149 891.201 884.619L890.28 881.437V885.271C890.28 886.361 890.156 887.517 890.28 888.701C890.467 888.733 890.53 891.169 890.53 891.325C890.53 892.26 889.66 892.279 888.788 892.279L882.511 891.917C882.23 891.917 881.697 885.99 881.697 884.184V883.934Z" fill="#273340"/>
<path d="M839.251 864.314H839.071L839.162 864.255L839.251 864.314ZM838.596 863.987C838.267 863.778 838.267 861.929 838.267 861.661C838.267 861.453 838.267 861.393 838.416 861.184V860.141C838.416 857.398 838.596 854.685 838.596 851.941C838.596 849.974 838.416 848.036 838.416 846.098V845.591L838.596 844.07C838.596 844.041 838.565 843.802 838.565 843.623C838.565 843.414 838.774 843.266 839.071 843.266H847.629V850.511C847.331 851.047 847.271 851.673 847.271 852.27C847.271 852.747 847.301 853.224 847.301 853.641C847.271 853.909 847.121 856.146 847.121 856.414V857.159H851.713C851.743 857.159 852.042 858.054 852.042 858.233V863.004L851.863 863.182C851.117 863.182 849.746 863.361 847.688 863.361C846.883 863.361 846.079 863.361 845.81 863.331L845.303 863.51C845.154 863.54 843.842 863.659 843.694 863.659L841.874 863.987C841.517 864.046 839.788 864.166 839.4 864.166L839.162 864.255C839.013 864.166 838.655 864.046 838.596 863.987Z" fill="#273340"/>
<path d="M859.124 857.01C859.303 857.01 860.107 857.04 860.286 857.04C860.584 857.04 861.359 857.01 861.419 857.01L862.402 856.653C862.433 856.653 862.553 856.534 862.582 856.504V856.325L862.402 855.997V854.625C862.402 852.836 862.582 851.047 862.582 849.258C862.582 848.722 861.629 848.662 860.823 848.662H859.303L859.124 849.169C859.124 849.318 858.974 852.061 858.974 853.075V854.536C858.974 854.923 859.094 856.622 859.124 857.01ZM852.922 845.74C852.982 843.296 856.47 843.593 857.99 843.445C858.139 843.177 858.437 843.117 858.736 843.117C858.856 843.117 858.974 843.147 859.094 843.147C859.183 843.147 859.243 843.117 859.303 843.117L859.451 842.938H859.78C860.256 842.938 860.286 843.177 860.763 843.296C861.18 843.296 862.343 843.266 863.537 843.266C864.729 843.266 865.892 843.296 866.309 843.296C869.291 843.296 868.993 844.876 869.231 846.546C869.409 848.006 869.588 848.812 869.588 848.99C869.588 850.153 869.499 852.091 869.499 852.568V853.224C869.439 853.969 869.291 857.517 869.231 858.292V859.813C869.231 860.052 869.022 862.168 868.783 863.361C868.097 864.315 865.743 864.196 864.072 864.196C862.91 864.196 859.78 864.226 859.124 864.166L858.974 864.345C858.647 864.494 858.079 864.523 857.275 864.523C856.559 864.523 855.486 864.494 854.412 864.494C852.654 864.494 852.743 859.098 852.743 856.563V853.075L852.922 845.74Z" fill="#273340"/>
<path d="M841.702 839.525C841.641 839.197 841.552 837.587 841.522 837.229V836.097C841.522 834.814 841.552 832.131 842 832.131H842.209C843.282 832.19 869.904 832.31 869.904 832.31L870.084 832.489C870.322 832.489 871.037 832.459 871.753 832.459C874.317 832.459 873.661 832.667 875.509 832.667C876.524 832.667 877.925 832.638 878.193 832.638C878.431 832.638 880.429 832.817 880.668 832.847H882.427L882.606 832.638H900.194V835.649C900.135 835.739 900.046 836.097 900.016 836.186V836.335C900.016 837.438 900.194 838.512 900.194 839.555C900.194 840.36 900.194 840.599 898.763 840.599C897.631 840.599 881.442 840.42 881.174 840.42C880.697 840.42 879.595 840.479 879.356 840.479V851.793C879.356 852.538 879.415 855.639 879.415 857.07C879.415 857.129 879.236 859.008 879.236 860.112C879.236 860.23 879.385 861.364 879.415 861.513V861.662L879.236 862.228V862.407C879.236 862.794 879.445 863.212 879.445 863.63C879.445 864.137 879.474 864.345 878.611 864.345C877.716 864.345 877.746 864.166 877.119 864.166H875.39C874.168 864.166 872.349 863.927 872.349 863.63L871.843 852.001C871.813 851.793 871.723 840.3 871.663 840.241C871.663 839.972 869.129 839.854 868.086 839.854C867.579 839.854 867.072 839.854 866.565 839.883C866.356 839.854 841.821 839.763 841.702 839.525Z" fill="#273340"/>
<path d="M881.43 862.705C881.43 861.751 881.221 861.632 881.221 861.155V859.425C881.221 858.8 881.072 853.82 881.042 853.194V849.735L881.221 844.22C881.549 843.713 882.264 843.683 882.741 843.683C882.92 843.683 883.099 843.713 883.129 843.862H884.411C885.455 843.862 886.379 843.683 887.363 843.683H887.81C888.079 844.101 888.049 844.667 888.317 845.085V848.185C888.317 848.335 888.495 849.437 888.495 849.557V849.765C888.495 850.273 888.436 851.346 888.436 851.614C888.913 851.614 889.36 851.346 889.867 851.286C891 851.137 892.252 851.257 893.326 850.779C893.653 848.603 894.19 846.873 894.19 844.22V843.683C894.548 843.325 895.532 843.355 896.128 843.355H898.872C899.289 843.385 900.242 843.624 900.272 843.683L900.422 844.22V848.006C900.123 848.99 900.034 849.944 900.034 850.928C900.034 851.465 900.064 851.972 900.094 852.508L899.915 852.837C899.915 853.045 899.945 853.552 899.945 854.059C899.945 854.566 899.915 855.103 899.915 855.282L899.736 859.425V859.634C899.736 860.022 899.795 860.47 899.795 860.886C899.795 862.138 899.647 863.391 898.006 863.391H893.236V858.74L892.997 858.382C892.997 858.562 892.789 858.562 892.67 858.562H891.924C891.865 858.562 891.418 858.651 891.089 858.74L889.002 859.068L888.495 859.247C888.495 860.976 888.317 863.6 887.989 863.927L887.81 864.107C887.661 864.107 887.272 864.077 886.856 864.077C885.932 864.077 885.246 864.255 884.351 864.255C883.994 864.255 882.533 864.166 882.264 864.107L881.579 863.749C881.549 863.719 881.43 863.63 881.4 863.57C881.4 863.45 881.43 863.063 881.43 862.705Z" fill="#273340"/>
<path d="M819.711 858.146C819.711 858.146 821.769 857.907 822.663 857.817H822.812C822.872 857.848 822.991 857.937 822.991 857.967V859.237C823.081 859.237 823.866 859.836 823.954 859.836C823.985 859.836 824.375 859.903 824.851 859.903C825.567 859.903 829.997 859.079 829.997 858.959L830.551 857.532C830.104 856.846 830.641 849.887 829.986 849.708C829.448 849.202 830.047 849.771 829.302 849.024C828.765 848.488 819.759 849.106 819.383 845.207C819.363 844.999 819.144 839.81 819.085 839.542C818.787 838.201 818.697 836.442 818.579 835.129V834.504C818.876 833.43 819.622 832.744 820.695 832.208H820.873C822.185 831.939 823.259 831.552 824.66 831.552C824.84 831.552 824.928 831.552 825.108 831.73H831.637C832.144 831.88 832.443 831.91 833.069 831.91C833.545 831.91 835.007 831.939 835.394 831.88C835.394 831.939 835.513 832.029 835.543 832.059C836.915 832.953 836.884 833.4 837.004 835.01V835.785C836.974 835.935 836.824 837.127 836.824 837.276V840.378L836.676 840.556H833.099C832.859 840.556 832.144 840.258 832.054 840.198V839.065C832.054 839.035 830.325 838.738 829.849 838.738C829.431 838.738 828.566 838.797 828.357 838.797L827.319 841.629C827.319 842.583 836.676 844.73 836.676 848.158V863.214C836.676 863.811 834.172 864.049 832.443 864.168C832.412 864.377 830.027 864.526 829.669 864.526C828.924 864.526 828.208 864.318 827.463 864.318C827.165 864.318 826.807 864.288 826.569 864.496H821.858C819.502 864.496 819.562 859.786 819.562 858.354V858.294L819.711 858.146Z" fill="#273340"/>
<path d="M891.212 899.704C891.212 900.396 890.651 900.957 889.959 900.957H886.775H883.081C882.389 900.957 881.829 900.396 881.829 899.704V896.294V894.564V894.754C881.829 894.062 882.389 893.5 883.081 893.5H885.621H887.063H889.959C890.651 893.5 891.212 894.062 891.212 894.754V894.636V896.077V899.704Z" fill="#273340"/>
</g>
</g>
<g clip-path="url(#clip1_823_167)">
<path d="M744.708 201.26C744.708 222.062 756.797 240.039 774.327 248.558L749.258 179.872C746.342 186.408 744.708 193.641 744.708 201.26Z" fill="#273340"/>
<path d="M832.74 198.608C832.74 192.113 830.407 187.615 828.406 184.114C825.742 179.785 823.245 176.119 823.245 171.79C823.245 166.959 826.909 162.462 832.07 162.462C832.303 162.462 832.524 162.491 832.751 162.504C823.401 153.938 810.944 148.708 797.262 148.708C778.902 148.708 762.749 158.128 753.352 172.396C754.585 172.433 755.747 172.459 756.734 172.459C762.231 172.459 770.74 171.792 770.74 171.792C773.573 171.625 773.907 175.786 771.077 176.121C771.077 176.121 768.23 176.456 765.062 176.622L784.2 233.547L795.701 199.054L787.513 176.62C784.683 176.454 782.002 176.119 782.002 176.119C779.17 175.953 779.502 171.623 782.334 171.79C782.334 171.79 791.013 172.457 796.177 172.457C801.673 172.457 810.183 171.79 810.183 171.79C813.018 171.623 813.351 175.784 810.52 176.119C810.52 176.119 807.667 176.454 804.505 176.62L823.497 233.114L828.739 215.597C831.011 208.328 832.74 203.107 832.74 198.608Z" fill="#273340"/>
<path d="M798.184 205.857L782.416 251.676C787.124 253.06 792.103 253.817 797.262 253.817C803.382 253.817 809.251 252.759 814.714 250.838C814.573 250.613 814.445 250.374 814.34 250.114L798.184 205.857Z" fill="#273340"/>
<path d="M843.376 176.046C843.602 177.72 843.73 179.517 843.73 181.45C843.73 186.783 842.734 192.778 839.734 200.274L823.681 246.687C839.305 237.576 849.814 220.649 849.814 201.261C849.815 192.124 847.481 183.532 843.376 176.046Z" fill="#273340"/>
<path d="M797.262 140C763.483 140 736 167.481 736 201.26C736 235.043 763.483 262.523 797.262 262.523C831.04 262.523 858.527 235.043 858.527 201.26C858.526 167.481 831.04 140 797.262 140ZM797.262 259.715C765.032 259.715 738.809 233.492 738.809 201.26C738.809 169.03 765.031 142.809 797.262 142.809C829.491 142.809 855.712 169.03 855.712 201.26C855.712 233.492 829.491 259.715 797.262 259.715Z" fill="#273340"/>
</g>
<defs>
<filter id="filter0_d_823_167" x="79" y="79" width="277" height="277" filterUnits="userSpaceOnUse" color-interpolation-filters="sRGB">
<feFlood flood-opacity="0" result="BackgroundImageFix"/>
<feColorMatrix in="SourceAlpha" type="matrix" values="0 0 0 0 0 0 0 0 0 0 0 0 0 0 0 0 0 0 127 0" result="hardAlpha"/>
<feMorphology radius="7" operator="dilate" in="SourceAlpha" result="effect1_dropShadow_823_167"/>
<feOffset dx="10" dy="10"/>
<feComposite in2="hardAlpha" operator="out"/>
<feColorMatrix type="matrix" values="0 0 0 0 0.105882 0 0 0 0 0.105882 0 0 0 0 0.145098 0 0 0 1 0"/>
<feBlend mode="normal" in2="BackgroundImageFix" result="effect1_dropShadow_823_167"/>
<feBlend mode="normal" in="SourceGraphic" in2="effect1_dropShadow_823_167" result="shape"/>
</filter>
<filter id="filter1_d_823_167" x="79" y="370" width="568" height="277" filterUnits="userSpaceOnUse" color-interpolation-filters="sRGB">
<feFlood flood-opacity="0" result="BackgroundImageFix"/>
<feColorMatrix in="SourceAlpha" type="matrix" values="0 0 0 0 0 0 0 0 0 0 0 0 0 0 0 0 0 0 127 0" result="hardAlpha"/>
<feMorphology radius="7" operator="dilate" in="SourceAlpha" result="effect1_dropShadow_823_167"/>
<feOffset dx="10" dy="10"/>
<feComposite in2="hardAlpha" operator="out"/>
<feColorMatrix type="matrix" values="0 0 0 0 0.105882 0 0 0 0 0.105882 0 0 0 0 0.145098 0 0 0 1 0"/>
<feBlend mode="normal" in2="BackgroundImageFix" result="effect1_dropShadow_823_167"/>
<feBlend mode="normal" in="SourceGraphic" in2="effect1_dropShadow_823_167" result="shape"/>
</filter>
<filter id="filter2_d_823_167" x="79" y="661" width="859" height="277" filterUnits="userSpaceOnUse" color-interpolation-filters="sRGB">
<feFlood flood-opacity="0" result="BackgroundImageFix"/>
<feColorMatrix in="SourceAlpha" type="matrix" values="0 0 0 0 0 0 0 0 0 0 0 0 0 0 0 0 0 0 127 0" result="hardAlpha"/>
<feMorphology radius="7" operator="dilate" in="SourceAlpha" result="effect1_dropShadow_823_167"/>
<feOffset dx="10" dy="10"/>
<feComposite in2="hardAlpha" operator="out"/>
<feColorMatrix type="matrix" values="0 0 0 0 0.105882 0 0 0 0 0.105882 0 0 0 0 0.145098 0 0 0 1 0"/>
<feBlend mode="normal" in2="BackgroundImageFix" result="effect1_dropShadow_823_167"/>
<feBlend mode="normal" in="SourceGraphic" in2="effect1_dropShadow_823_167" result="shape"/>
</filter>
<filter id="filter3_d_823_167" x="370" y="79" width="277" height="277" filterUnits="userSpaceOnUse" color-interpolation-filters="sRGB">
<feFlood flood-opacity="0" result="BackgroundImageFix"/>
<feColorMatrix in="SourceAlpha" type="matrix" values="0 0 0 0 0 0 0 0 0 0 0 0 0 0 0 0 0 0 127 0" result="hardAlpha"/>
<feMorphology radius="7" operator="dilate" in="SourceAlpha" result="effect1_dropShadow_823_167"/>
<feOffset dx="10" dy="10"/>
<feComposite in2="hardAlpha" operator="out"/>
<feColorMatrix type="matrix" values="0 0 0 0 0.105882 0 0 0 0 0.105882 0 0 0 0 0.145098 0 0 0 1 0"/>
<feBlend mode="normal" in2="BackgroundImageFix" result="effect1_dropShadow_823_167"/>
<feBlend mode="normal" in="SourceGraphic" in2="effect1_dropShadow_823_167" result="shape"/>
</filter>
<filter id="filter4_d_823_167" x="661" y="79" width="277" height="277" filterUnits="userSpaceOnUse" color-interpolation-filters="sRGB">
<feFlood flood-opacity="0" result="BackgroundImageFix"/>
<feColorMatrix in="SourceAlpha" type="matrix" values="0 0 0 0 0 0 0 0 0 0 0 0 0 0 0 0 0 0 127 0" result="hardAlpha"/>
<feMorphology radius="7" operator="dilate" in="SourceAlpha" result="effect1_dropShadow_823_167"/>
<feOffset dx="10" dy="10"/>
<feComposite in2="hardAlpha" operator="out"/>
<feColorMatrix type="matrix" values="0 0 0 0 0.105882 0 0 0 0 0.105882 0 0 0 0 0.145098 0 0 0 1 0"/>
<feBlend mode="normal" in2="BackgroundImageFix" result="effect1_dropShadow_823_167"/>
<feBlend mode="normal" in="SourceGraphic" in2="effect1_dropShadow_823_167" result="shape"/>
</filter>
<clipPath id="clip0_823_167">
<rect width="105" height="105" fill="white" transform="translate(807 814)"/>
</clipPath>
<clipPath id="clip1_823_167">
<rect width="122.52" height="122.523" fill="white" transform="translate(736 140)"/>
</clipPath>
</defs>
</svg>
